/* XPM */
static char *e327b8d9ad0f44cb80ad7fcf95a21974UngIAG4a58bCGQzc[] = {
/* columns rows colors chars-per-pixel */
"64 64 122 2 ",
"   c #241714",
".  c #261915",
"X  c #2A1B16",
"o  c #2F1E18",
"O  c #351E1D",
"+  c #381E1F",
"@  c #34211A",
"#  c #3C281E",
"$  c #371E20",
"%  c #391F20",
"&  c #3C2021",
"*  c #422523",
"=  c #492925",
"-  c #4C2E29",
";  c #572A26",
":  c #5A2B27",
">  c #5D2C28",
",  c #4F302A",
"<  c #612F29",
"1  c #65312A",
"2  c #69332C",
"3  c #874535",
"4  c #864535",
"5  c #854635",
"6  c #864635",
"7  c #874635",
"8  c #864735",
"9  c #844434",
"0  c #844434",
"q  c #884635",
"w  c #884735",
"e  c #894735",
"r  c #884736",
"t  c #894736",
"y  c #8A4736",
"u  c #884736",
"i  c #894836",
"p  c #884936",
"a  c #8A4836",
"s  c #8B4836",
"d  c #8B4936",
"f  c #8C4936",
"g  c #8C4937",
"h  c #8C4A37",
"j  c #8D4A37",
"k  c #8E4A37",
"l  c #8E4B37",
"z  c #8F4B37",
"x  c #8A4836",
"c  c #8D4B38",
"v  c #8E4B38",
"b  c #8F4B38",
"n  c #8F4C38",
"m  c #8E4B38",
"M  c #904B38",
"N  c #904C38",
"B  c #914C38",
"V  c #914D38",
"C  c #914D39",
"Z  c #924D39",
"A  c #934E39",
"S  c #904C38",
"D  c #97513B",
"F  c #A05C3F",
"G  c #A46041",
"H  c #A56041",
"J  c #A66042",
"K  c #A76042",
"L  c #A86242",
"P  c #A96242",
"I  c #A96243",
"U  c #AA6243",
"Y  c #AC6343",
"T  c #AD6343",
"R  c #AD6443",
"E  c #AE6444",
"W  c #AE6544",
"Q  c #AF6544",
"!  c #AF6445",
"~  c #AC6343",
"^  c #B06645",
"/  c #B16645",
"(  c #B06745",
")  c #B16745",
"_  c #B26745",
"`  c #B36746",
"'  c #B16645",
"]  c #B26845",
"[  c #B36846",
"{  c #B46846",
"}  c #B56846",
"|  c #B56947",
" . c #B76947",
".. c #B46A47",
"X. c #B36846",
"o. c #B56A48",
"O. c #B56B48",
"+. c #B66B48",
"@. c #B66C48",
"#. c #B56B48",
"$. c #BA6E49",
"%. c #BC6E4A",
"&. c #BE704C",
"*. c #BF714C",
"=. c #C1714C",
"-. c #C2734D",
";. c #C2734E",
":. c #C3734E",
">. c #C6764F",
",. c #C3734E",
"<. c #C38258",
"1. c #C9855B",
"2. c #CA875B",
"3. c #CB875C",
"4. c #CC875C",
"5. c #CC895D",
"6. c #CE885D",
"7. c #CE895D",
"8. c #D0895E",
"9. c #D08B5F",
"0. c #DB9262",
"q. c #DB9263",
/* pixels */
"@ @ @ @ @ @ @ @ @ @ @ @ @ @ @ @ @ @ @ @ @ . . . X @ @ @ @ @ @ @ @ @ @ @ @ @ @ @ @ @ @ @ @ @ @ @ @ @ @ X @ @ @ @ @ @ @ @ @ @ @ @ ",
"W W R R ^ R R R R R ^ R R R R R W R Y ] 1., . X > Y ( Y ^ R R R R R R R R R ( R W W R R R R ^ R Y ..<.# G ^ R W R R ^ R R R R R ",
"M V V V V M M V V V V V V V V V V Z V A ;.7.- X > c n c V V V V V V V V V V V V Z M M Z V V V Z n D @.@ 1 c Z M Z V V V V V V V ",
"e e e e e e e e i i q q 7 e e e e e e e c ;.3.@ : w i i e e e i e e 7 e 7 w e e e e e e i i 7 e 4 n W @ ; 4 e e 4 w 4 i 7 e e e ",
"i i i s i s i s i s i s i i i s i s i s e Z $.@ : i s i s i s i s i i e i i i i i s i s i s i s i V ^ @ > e c e s i s i i i s i ",
"i i s i s i s i s i s i i s s i s i s i e Z R @ : i s s i s i i i s s 7 7 7 i s s i s i s i s i e V ^ @ : e e g i s i s i i i s ",
"i s i s i s i s i s i s i q i s i s i i e V ] @ : 4 i i s i s i s q 0 1 < 1 q s i s i s i s i s e V W @ : e g e s i s i s i s i ",
"s i s i s i s i s i i s q 1 q s s i s i 4 V ^ @ : e s s i 4 w w 7 1 1 7 e 7 s i s i s i s i s i 4 V ^ @ : e e g i s i s i s i s ",
"i s i s i i i g i s i s q 1 0 q e c e e g M R @ ; 9 4 0 2 < < < 1 0 7 q s s s i s i s i i s i s e M ^ @ : i s i s s i i s i s i ",
"s i s i s i 4 e s i i i e 0 1 > > 4 e g 4 c R @ % < < 2 0 4 e e 0 2 7 i i s i s i s i s s i s i e Z ^ @ : i i i i q i i i s i s ",
"i s i s s e 2 0 e i s 7 < : + @ % < g 0 1 c  .O % 4 4 4 g e c e e 0 1 7 s i s i s i s i i s i s e Z ^ @ : e i i q 1 7 i s i s i ",
"s i s i i i 4 < 1 7 7 > & % X X $ : 0 2 0 c U @ ; g e g e g e e i 7 1 7 s s i e i s i s s i s i 4 Z ] @ ; 4 w w 7 1 7 e i s i s ",
"s e g s g g g 4 0 < > & % X . . X @ < 4 e < & X > r g e s s s c i i e i s s s s s s s s s s i s 4 c I @ & > 1 0 2 9 s e s s s s ",
"e e e e r r r r > & % $ $ X X . . X & > > @ X X : 4 g r e e e e e e e i e e e e i i e e g e e 4 < > * . X @ & > 0 g e e e e e e ",
"> > : > > > > > % $ $ & $ $ X . . . . O $ .   . $ : : ; : : : : : : : > > > > : : > : : : : : ; $ $ .       . + : : > : : > : : ",
"X X X X X X % * * * & & % & & X X . X O @ O @ o O @ @ @ @ @ @ @ @ @ @ X X X X @ @ @ @ @ O @ @ @ @ @ @ @ @ o O @ @ O @ @ @ @ @ @ ",
". . X . X   O G o.! c 4 < ; & $ % % < U ] ^ R 4 W ^ ^ ^ ^ ^ ^ ^ W @.2.-     o G ] ^ ^ ^ ^ ^ ^ ^ W ] ^ ] ^ ^ ( ^ ^ ^ ^ ^ ^ ^ ^ ^ ",
"& & % % $ X X 1 c Z  . .4 > & & > < 4 Z Z V i 2 s Z Z Z M V M V Z Z -.7., & o 1 s V V V Z s V V n n n n V V V V M V V V M V V M ",
": : > : & $ X : 4 g c c 2 : > > 0 4 i e i 0 1 0 i e i i e e e e e e c *.q.7.@ : e i i e i e i e i i e 4 q e i i q e e e e e 7 q ",
"> > > > : % X > 4 g e e 0 < 4 4 2 4 s i i 7 1 4 s i i i i i i i i i w c *.&.@ : i s i s i i s i i i i i i i i s i i i i i i i i ",
"> > > > > % X > e e g e 2 0 e g e i i s 4 1 7 e i s i s i s i s i s i e Z R @ : e s i 4 4 i i s i s i i s i i i s i s i i i s i ",
"> > > > : % X > e s i i 4 4 g e i s i i 7 1 7 e s i s i s i s i i i i e Z ^ @ : e s 4 2 1 4 s i s i e 7 e s 4 e i s i s i s i s ",
"> > > > > $ X > 4 i g e g e e g i s i e 1 0 1 4 s s i s i s i s i i s e M ^ @ > i s i 4 0 1 4 i i s 7 1 1 0 2 4 s s s i s i s i ",
"> > > > : & X > 4 g e g e g g 4 s i e 0 1 0 1 4 s i s i s i s i s i e e Z ^ @ : i s s i i 0 1 4 s 4 1 7 7 1 0 e s i i s i s i s ",
"> > > < > + X > 3 y y y e g e g i s e 2 0 g 4 e g e g 4 i s i s s e 1 0 Z ^ @ : e g e g e 4 1 0 4 1 4 s e 0 2 0 i s s i s i s i ",
"> > > > > + X > 3 y y y g e g e s i i 4 e g e g e g i g s i s i i i 4 1 i R @ : g e g e e g 0 2 0 2 4 i g g 0 2 q s i s i s i s ",
": < > > > + X : 3 k y y e g e g s i i s g e g e s i i i i s i i s i s 4 2 w O : 4 g g e g e g 0 1 0 i i e g e 4 i i s i s i s i ",
"< : : < > + X > y y y k g e g e i s i s e g e e i i i i s i s i i s s e s R @ : e g e g 4 g i 4 1 4 g 4 g e g e i s i s i s i s ",
": : > > : + X : 3 k y y y y e s s i i i s i e c s i e g i e i i s i i i Z ] @ : y e g e e g 9 2 0 i i s e g e g i s e s s i s i ",
": < > > > + X & < 3 3 y g y s y s s s i s s e e s s g 4 4 g i g s s i i V ] @ ; < 9 e g g g 9 < 4 s i s g e g e s s s s s s s s ",
"< < : > > & X X % : < 3 y y y y i e e e e e e e e e 0 * * 0 4 4 i i i 4 c Y @ + % < 9 g e 9 2 9 e e e e 4 g g e e e e e e e i i ",
"; ; : : > ; +     $ % ; : : : : > : : : : : > > : : % .   & ; > : : : : : : .   . $ ; : : ; @ ; > > > > : : : : : > : : : : : : ",
"< 2 1 1 1 1 1 * @ @ @ @ @ O @ @ @ @ @ @ @ @ X X @ @ O @ @ @ @ @ @ @ @ @ @ @ @ @ @ @ @ @ @ @ @ @ X X X X @ @ @ @ @ @ @ @ @ @ @ @ ",
" ._ ......_ ..^ ( ^ ^ ^ L i R ^ ^ ^ ^ ^ @.2.- O H ] R ^ ^ ^ ^ W ^ ^ ^ R ^ ] ^ ^ ^ ^ W W ] ^ ..7.- .   O G ] ^ ^ ^ ^ ^ W ^ ^ ^ ^ ",
"M M V c M M V V V V V i 2 i Z Z V V V c Z ;.3.@ < V Z V V s V V V V V V V c V V n Z Z Z Z n Z ,.7., . X 1 Z V V M Z M Z c Z Z Z ",
"q q e e q q q q e 7 0 1 7 s e i q q w 7 7 D $.@ ; q e e i i e e q q q q e e e 4 e e 4 e e e e s >.9.& X : 4 e i e e e 4 e e e e ",
"s i s i s i s i 7 1 1 7 s i s i i s i s e M R @ : e i i s i s s i s i s i i s i s i s i s i s s $.0., X > i s s s i i s i i e e ",
"s s i s i e q 7 1 0 4 e s i i s s i s i e V ^ @ : i s i i s i e s i s i i i i s i s i s i s i i c *.7.@ : e s i i s s e e 4 < > ",
"s i s i i 0 1 1 0 i i i i s i s i s i s e M ^ @ : e s s i s 4 1 4 s i s i s s i s i s i s i i s e V @.@ : e i s s e 4 > > > & % ",
"i s s s 7 1 0 7 1 e s s s i s i s i s i e Z ^ @ : i s i i i 4 1 w s s i s i s s i s i s i s s i e V ^ @ : 4 i i 4 2 > & & % % % ",
"s i 7 0 2 0 s w 1 0 e i i s i s i s i s q V ^ @ : 4 g e g 4 1 4 i s i s i s e e e i i s i i i s e Z ` @ : e g e i 4 < > > & % % ",
"e 7 1 1 0 e i i 9 2 4 s s i s i s i s i e V ^ @ : g e g e 0 1 4 s i s i i e 2 0 s s s i i i s i 4 Z ^ @ : g e g i i e e 4 < > > ",
"7 2 0 7 s i i i s e i s i s i s i s i s i A ( @ : e s s 4 2 0 i i s i s s s 0 2 0 e i s g i g e e Z ^ @ : r g e i s s s e e e e ",
"1 0 i i i s i s i s s i s i s i s i s i e s U @ > e i i g 4 i i s i s i i i i 4 1 1 4 i 4 g e g 4 n ^ @ ; r e g i i i s c i i e ",
"w d e e s s s s e i s s s i s s s s e e 7 < & X > e s i s s i s s s s s s i e i 4 4 2 4 i i g e i Z G @ : e i e e c s e e e g e ",
"i e e e e q q q e e e e e e e e e e e 7 < # . X @ > 4 i i e i i i i e i e e e e e e 4 i e i e g e 4 * o : 4 e e e e e e e g 4 g ",
": > > > > > > > > : : : : > : : : : : : ; + . .   + : : : : : : : : : > : > > > : > : : : : : : ; ; + . + : : : : : : : : : : : ",
"X X X X X X X X X @ @ @ O o @ @ @ @ @ @ O @ o O O @ @ @ @ @ @ @ @ @ @ @ @ X X X X @ @ @ @ @ @ @ @ @ @ O @ @ @ @ @ + @ @ @ @ @ + ",
". . . . . . . . & G ^ ] U 2 G ^ ( ( ^ ^ ^ ^ ^ ^ ( ^ ^ ^ R ] ^ ^ ^ ^ W @.4.- . . * U ] ^ ^ ^ ^ ^ ^ ^ ^ ] ^ ^ ^ ^ ^ ^ ^ ^ ^ ^ ^ ^ ",
"* * * & $ X . X & 2 n Z V 4 2 c V c V V V V V V V V V V V V V c Z Z Z Z ,.4.@ % 0 M V V M V M V V c V V V V V s Z Z c V V V V M ",
"^ ] ( d > & X & < 0 w i e e 1 0 i e e e 7 q e e e q q q e e e e 4 e e 4 Z o.@ : e e i e e 4 e e e e e 4 e e e e e e e e i i 4 e ",
"Z c D ] i & X : w i i i i e 7 1 e s i s i i i i i i i i s i i s i i i e Z ^ @ : i i s i i i i s i i i i s i i i i i i i 4 e i i ",
"4 i e D ^ & . > e s s i i e 4 1 e s i i s i s i i s i i q i s i i s i e Z ^ @ : e i i s i i s i i s i s i s i s i s s i 1 1 0 i ",
"i i i s ^ = X > e s i i s e 1 0 i i i s i s i s s i e 0 2 q s i i i i e M ^ @ : e i s i s i i s s i s i s i s i s i i s e 0 2 0 ",
"i s i e A U @ : g e i s e e 0 2 e i s i s i s i i s q 1 0 i i s i s i e Z ^ @ : e s i s e i s i i s i s i s i s i s s i s s 0 1 ",
"s i s i V ] @ : e g i e s 9 1 0 e s i s i s i s s s 7 1 7 e s i s i i e M ^ @ > e i i e 1 e s i s i s i s i s i s i i s i i s 4 ",
"i i i e M ^ @ : g e 4 2 0 > > 0 2 w e i s i s i e 7 2 7 i s i s i s i e V ^ @ : e i i 4 1 0 i i i s i s i s i s i s i s i s i s ",
"s i i e Z ^ @ : 4 g i 0 1 & & > 0 i i i i s i s i e 7 s s i s i s i i e V W @ : i i e 1 0 2 4 i s i s i s i s i s i s i s i i s ",
"i s i e M ^ @ : g 4 g g 0 > & & < i f e s i s i i s s i i s i s i s i e M W @ : 4 e 0 1 4 4 1 e s i i s i s i s i s i s s i s i ",
"s i i 4 Z ^ @ : 4 g e 4 2 0 > & > 7 e e i s i s s i s i s i s i s i s e Z ^ @ + > > 1 7 e e 4 i i s s i s i s i s i s i i s i s ",
"s i s i Z ^ @ : i i i i 4 i 0 1 0 2 7 e i i f e s i s s e s s i s i i e Z ] @ . & > 7 s i i s i s s s s i i s i s i s i s s s s ",
"e e e e n R @ : e e i 4 g 0 1 0 e 7 7 w i i e e i i i i e e i i i i i w s W O . & > e e q i e i i e e e w e i e e i i i i i e i ",
"> : > : > : X & : > > : : * ; > : > > > > : > : : : : > : : > : : > : > > : X . X @ : > > : > : : > : : : > > : : > > : : > : : ",
"X X X X X X . X X X X X X . X . X X X X X X X X X X X X X X X X X X X X X X . . . X X X X X X X X X X X X X X X X X X X X X X X "
};
